<svg width="53" height="60" viewBox="0 0 53 60" fill="none" xmlns="http://www.w3.org/2000/svg">
<path fill-rule="evenodd" clip-rule="evenodd" d="M22.0994 52.595L18.4091 53.9813L22.0994 55.3872V58.6381L17.2181 55.8704C15.0801 54.6598 15.0605 53.337 17.2181 52.1167L22.0994 49.3441V52.595ZM19.2048 37.3068C22.7584 41.2997 30.8077 40.5968 33.7804 37.3068C33.0365 36.4231 32.3486 35.4938 31.7205 34.5244L31.3104 33.9289C29.8524 34.9148 28.1254 35.4262 26.3657 35.3933C24.3877 35.4078 22.4697 34.7154 20.9572 33.4408C20.552 34.6513 19.9809 36.3159 19.3854 37.1115C19.3339 37.1785 19.2731 37.2376 19.2048 37.2872V37.3068ZM33.0384 44.3847H4.90252C4.62782 44.3994 4.35934 44.472 4.11466 44.5977C3.86998 44.7235 3.65464 44.8995 3.48273 45.1143C3.31083 45.329 3.18625 45.5777 3.11715 45.844C3.04805 46.1102 3.036 46.3881 3.08179 46.6594L4.80489 59.9854H0.411707C0.411707 52.8684 -2.11193 44.1406 5.33696 39.972C8.10954 38.4246 15.2558 37.9023 18.3701 35.857C18.8913 34.7374 19.3333 33.5826 19.6929 32.401C19.7271 32.2937 19.6685 32.4694 19.7222 32.3083C18.6041 31.032 17.6073 29.6544 16.7446 28.1933L14.177 24.1272C13.2349 22.7263 12.7468 21.4425 12.7126 20.393C12.6963 19.9266 12.7917 19.463 12.9909 19.0409C13.1844 18.6237 13.4904 18.2688 13.8744 18.0158C14.0689 17.8879 14.2768 17.7815 14.4943 17.6985C14.3167 15.2621 14.2759 12.8176 14.3723 10.3765C14.4312 9.81379 14.5373 9.25698 14.6896 8.71201C15.6414 5.37319 18.5165 2.93253 21.8163 1.79031C23.4173 1.23872 22.7974 -0.0792375 24.4278 0.00374483C28.2645 0.213641 34.1904 2.68359 36.4505 5.30485C39.6331 8.9756 38.813 13.4957 38.7056 17.9963C39.0337 18.083 39.3319 18.2574 39.5684 18.5008C39.8049 18.7442 39.9707 19.0473 40.048 19.3777C40.253 20.188 40.048 21.3302 39.3402 22.8874C39.3402 22.8874 39.3402 22.941 39.2963 22.9703L36.3675 27.7882C35.2399 29.648 34.0928 31.5078 32.5649 32.9429L32.4868 33.0112L32.975 33.6946C33.4631 34.4414 34.0586 35.2908 34.5956 35.9546C37.7782 37.9072 44.7731 38.4636 47.5115 39.9866C54.3454 43.8038 52.017 53.2296 52.3928 60H48.0436L49.7667 46.674C49.8125 46.4028 49.8004 46.1249 49.7313 45.8586C49.6622 45.5923 49.5377 45.3437 49.3657 45.1289C49.1938 44.9141 48.9785 44.7381 48.7338 44.6124C48.4891 44.4867 48.2207 44.414 47.946 44.3993H33.0384V44.3847ZM15.9538 18.8993C15.5021 18.896 15.0575 19.0122 14.6651 19.2361C14.5052 19.3435 14.3771 19.4918 14.2942 19.6657C14.2042 19.8835 14.1641 20.1187 14.177 20.354C14.2014 21.135 14.6115 22.1552 15.4022 23.3316L17.9698 27.4172C18.9998 29.0525 20.0834 30.7219 21.4209 31.9471C22.7464 33.2411 24.5279 33.9618 26.3803 33.9533C27.3431 33.9711 28.2998 33.7973 29.1948 33.442C30.0898 33.0867 30.9052 32.5569 31.5936 31.8836C32.9798 30.5852 34.0684 28.8133 35.1471 27.0365L38.0369 22.2723C38.5787 21.0422 38.774 20.2173 38.6519 19.7389C38.5787 19.4509 38.2614 19.3093 37.7196 19.2801C37.6025 19.2801 37.4853 19.2801 37.3681 19.2801C37.2332 19.2731 37.098 19.2731 36.963 19.2801C36.8885 19.2899 36.813 19.2899 36.7385 19.2801C36.4741 19.292 36.2091 19.2772 35.9477 19.2361L36.924 14.8429C29.5727 15.9998 24.0714 10.5376 16.3004 13.7495L16.8617 18.9384C16.5651 18.9554 16.2674 18.9424 15.9733 18.8993H15.9538ZM30.3879 52.5804L34.0781 53.9667L30.3879 55.3725V58.6235L35.2692 55.8558C37.4072 54.6452 37.4218 53.3224 35.2692 52.102L30.3879 49.3294V52.5804ZM26.1753 59.5558H23.7346L26.7513 47.8114H29.1919L26.1753 59.5558Z" fill="url(#paint0_linear_305_6)"/>
<defs>
<linearGradient id="paint0_linear_305_6" x1="-24.9398" y1="42.375" x2="52.4869" y2="42.2826" gradientUnits="userSpaceOnUse">
<stop stop-color="#0076FF"/>
<stop offset="1" stop-color="#00BCFF"/>
</linearGradient>
</defs>
</svg>
