<svg width="50" height="60" viewBox="0 0 50 60" fill="none" xmlns="http://www.w3.org/2000/svg">
<path d="M20.9351 55.6885C24.9087 56.2181 28.9516 55.6875 32.6539 54.1504C34.3095 53.4776 35.8877 52.6279 37.3609 51.6162L37.6734 55.0781C36.4406 55.8289 35.1508 56.4819 33.816 57.0312C29.6075 58.7646 25.0158 59.3559 20.5054 58.7451C15.6517 58.0377 11.1652 55.7541 7.73688 52.2461C4.11728 48.5514 1.62867 43.8994 0.564032 38.8379C-0.749374 32.626 0.248927 26.1483 3.37165 20.6201C6.49739 15.05 11.5239 10.7913 17.5318 8.62305C19.4715 7.85182 21.5686 7.56035 23.6451 7.77344C24.5515 7.87336 25.4274 8.16013 26.2174 8.61564C27.0074 9.07115 27.6944 9.68551 28.2349 10.4199C28.2991 10.5115 28.3531 10.6097 28.3961 10.7129C29.8267 13.9795 28.0884 16.0254 26.4429 17.9883C25.4664 19.1162 24.5679 20.1953 25.105 21.2305C25.295 21.4913 25.5348 21.712 25.8105 21.8796C26.0862 22.0472 26.3925 22.1585 26.7115 22.207C27.9969 22.4859 29.3252 22.5041 30.6177 22.2607C31.8873 22.0557 33.2008 21.7725 34.4508 21.5137C35.359 21.3232 36.2379 21.1377 37.0826 20.9814L36.3795 24.2627C35.9547 24.3457 35.525 24.4385 35.0904 24.5312C33.8453 24.7949 32.5465 25.0732 31.1011 25.2979C29.3942 25.6103 27.6415 25.5721 25.9498 25.1855C24.2847 24.751 23.0201 23.8867 22.3902 22.6416C20.8912 19.7656 22.4586 17.915 24.0992 15.9814C25.1148 14.7803 26.1793 13.54 25.6617 12.0752C25.0464 11.3468 24.1697 10.8892 23.2203 10.8008C21.6362 10.6614 20.0416 10.899 18.567 11.4941C13.2577 13.4217 8.82023 17.197 6.06696 22.1289C3.30506 27.0025 2.42107 32.718 3.58161 38.1982C4.51797 42.688 6.72072 46.8156 9.92927 50.0928C12.8856 53.1163 16.7549 55.0827 20.94 55.6885H20.9351ZM20.0172 49.3164C20.3346 50.1425 20.8899 50.8558 21.6128 51.3662C22.3358 51.8765 23.1939 52.161 24.0786 52.1835C24.9632 52.206 25.8347 51.9655 26.5826 51.4926C27.3306 51.0196 27.9214 50.3354 28.2804 49.5265C28.6394 48.7177 28.7503 47.8205 28.5992 46.9485C28.4481 46.0766 28.0417 45.269 27.4315 44.6281C26.8213 43.9872 26.0347 43.5417 25.1712 43.348C24.3077 43.1544 23.4061 43.2212 22.5806 43.54C21.4754 43.967 20.5847 44.815 20.1041 45.898C19.6235 46.981 19.5922 48.2104 20.0172 49.3164ZM43.9967 0C43.65 5.43945 36.5211 8.78906 39.0601 14.4482C39.423 15.2413 39.9455 15.9511 40.5949 16.5333C41.2443 17.1154 42.0067 17.5576 42.8345 17.832C43.4939 18.0356 44.1935 18.0725 44.8707 17.9395C45.1804 17.8742 45.4818 17.7743 45.7691 17.6416C49.4752 15.9619 49.9195 11.416 48.8209 7.9248C47.7955 4.70703 45.5836 1.86035 43.9967 0ZM48.7525 30.3223C45.8299 30.9956 42.7956 31.024 39.8609 30.4053L42.2681 56.8994C42.3902 58.5449 42.7076 59.6777 44.7095 60C45.3262 59.9798 45.9124 59.7268 46.3502 59.292C46.761 58.808 46.9861 58.1935 46.9849 57.5586L48.7525 30.3223ZM46.3453 20.1172C45.2222 20.5811 43.2008 20.8252 41.7847 20.1172L39.9049 28.8428C43.025 29.5361 46.0767 29.668 49.0015 28.8428C47.9371 24.5996 47.0484 24.5557 46.3453 20.1416V20.1172ZM30.5103 39.5508C30.9603 40.7178 31.8226 41.6794 32.9339 42.2535C34.0452 42.8276 35.3284 42.9744 36.5406 42.666L35.6422 32.6025C34.7828 32.5422 33.9222 32.6998 33.14 33.0607C32.3579 33.4216 31.6794 33.9741 31.1677 34.667C30.6559 35.3599 30.3273 36.1708 30.2124 37.0246C30.0975 37.8783 30.2 38.7472 30.5103 39.5508ZM8.23981 39.9707C8.55944 40.795 9.11621 41.5062 9.8398 42.0142C10.5634 42.5223 11.4213 42.8045 12.3052 42.8252C13.1891 42.8459 14.0593 42.6042 14.8059 42.1306C15.5525 41.657 16.142 40.9727 16.4998 40.1642C16.8577 39.3558 16.968 38.4594 16.8166 37.5883C16.6653 36.7172 16.2592 35.9105 15.6496 35.2701C15.04 34.6297 14.2543 34.1843 13.3917 33.9902C12.5292 33.7962 11.6284 33.8621 10.8033 34.1797C10.255 34.3905 9.75374 34.7074 9.32809 35.1122C8.90244 35.517 8.56078 36.0017 8.32268 36.5387C8.08458 37.0757 7.9547 37.6544 7.94049 38.2416C7.92627 38.8288 8.02798 39.4131 8.23981 39.9609V39.9707ZM10.8619 26.7871C11.1773 27.6063 11.7284 28.3136 12.4458 28.8195C13.1631 29.3254 14.0143 29.6073 14.8918 29.6295C15.7693 29.6517 16.6337 29.4132 17.3756 28.9442C18.1176 28.4751 18.7038 27.7966 19.0602 26.9944C19.4166 26.1923 19.5271 25.3024 19.3778 24.4374C19.2285 23.5724 18.826 22.7711 18.2213 22.1349C17.6166 21.4986 16.8369 21.0559 15.9806 20.8627C15.1243 20.6696 14.23 20.7347 13.4107 21.0498C12.3126 21.4735 11.4275 22.3156 10.9496 23.3913C10.4718 24.4669 10.4402 25.6882 10.8619 26.7871Z" fill="url(#paint0_linear_305_7)"/>
<defs>
<linearGradient id="paint0_linear_305_7" x1="-23.4485" y1="42.375" x2="49.3483" y2="42.2933" gradientUnits="userSpaceOnUse">
<stop stop-color="#0076FF"/>
<stop offset="1" stop-color="#00BCFF"/>
</linearGradient>
</defs>
</svg>
