<svg width="35" height="60" viewBox="0 0 35 60" fill="none" xmlns="http://www.w3.org/2000/svg">
<path d="M6.08398 0H28.7305C30.4053 0 31.9336 0.683594 33.0322 1.78223C34.1309 2.88086 34.8145 4.40918 34.8145 6.08398V53.916C34.8145 55.5908 34.1309 57.1191 33.0322 58.2178C31.9336 59.3164 30.4053 60 28.7305 60H6.08398C4.40918 60 2.88086 59.3164 1.78223 58.2178C0.683594 57.1191 0 55.5908 0 53.916V6.08398C0 4.40918 0.683594 2.88086 1.78223 1.78223C2.88086 0.683594 4.40918 0 6.08398 0ZM25.7129 22.0703H29.209C30.0879 22.0703 30.8008 22.7881 30.8008 23.6621V27.1582C30.8008 28.0371 30.083 28.75 29.209 28.75H25.7129C24.834 28.75 24.1211 28.0322 24.1211 27.1582V23.6621C24.1211 22.7881 24.8389 22.0703 25.7129 22.0703ZM15.6592 22.0703H19.1553C20.0342 22.0703 20.7471 22.7881 20.7471 23.6621V27.1582C20.7471 28.0371 20.0293 28.75 19.1553 28.75H15.6592C14.7803 28.75 14.0674 28.0322 14.0674 27.1582V23.6621C14.0674 22.7881 14.7803 22.0703 15.6592 22.0703ZM5.60547 22.0703H9.10156C9.98047 22.0703 10.6934 22.7881 10.6934 23.6621V27.1582C10.6934 28.0371 9.97559 28.75 9.10156 28.75H5.60547C4.72656 28.75 4.01367 28.0322 4.01367 27.1582V23.6621C4.00879 22.7881 4.72656 22.0703 5.60547 22.0703ZM25.7129 12.0752H29.209C30.0879 12.0752 30.8008 12.793 30.8008 13.667V17.1631C30.8008 18.042 30.083 18.7549 29.209 18.7549H25.7129C24.834 18.7549 24.1211 18.0371 24.1211 17.1631V13.667C24.1211 12.793 24.8389 12.0752 25.7129 12.0752ZM15.6592 12.0752H19.1553C20.0342 12.0752 20.7471 12.793 20.7471 13.667V17.1631C20.7471 18.042 20.0293 18.7549 19.1553 18.7549H15.6592C14.7803 18.7549 14.0674 18.0371 14.0674 17.1631V13.667C14.0674 12.793 14.7803 12.0752 15.6592 12.0752ZM5.60547 12.0752H9.10156C9.98047 12.0752 10.6934 12.793 10.6934 13.667V17.1631C10.6934 18.042 9.97559 18.7549 9.10156 18.7549H5.60547C4.72656 18.7549 4.01367 18.0371 4.01367 17.1631V13.667C4.00879 12.793 4.72656 12.0752 5.60547 12.0752ZM16.0107 42.3389C15.9863 42.3242 15.9521 42.3096 15.9277 42.29C15.5957 42.0264 15.2295 41.7334 14.917 41.4746C14.458 41.0986 13.9307 40.6641 13.5596 40.3564C13.3105 40.1514 13.0225 40.0049 12.749 39.9463C12.5732 39.917 12.417 39.917 12.29 39.9658C12.1875 40.0098 12.0996 40.0928 12.0459 40.2148C11.9727 40.3857 11.9336 40.625 11.9531 40.9473C11.9727 41.2354 12.0703 41.5479 12.2021 41.8555C12.3975 42.2998 12.666 42.7148 12.8662 42.9785C12.8809 42.998 12.8906 43.0078 12.8955 43.0273L16.7041 48.4668H26.7139C27.334 47.4512 27.8613 46.5527 27.9248 45.2832L27.8857 43.501C27.8809 43.4766 27.8809 43.4521 27.8809 43.4277C27.8809 43.4033 27.8809 43.2324 27.8857 43.0078C27.9004 41.8262 27.915 40.3711 26.8359 40.1904H26.1377C26.1328 40.5225 26.1133 40.8643 26.0938 41.1865C26.0742 41.4795 26.0547 41.7578 26.0547 42.0264C26.0547 42.3145 25.8203 42.5488 25.5322 42.5488C25.2441 42.5488 25.0098 42.3145 25.0098 42.0264C25.0098 41.7578 25.0293 41.4404 25.0488 41.1182C25.1172 40.0049 25.2002 38.7354 24.3164 38.5742H23.6279C23.5889 38.5742 23.5547 38.5693 23.5156 38.5596C23.5205 38.96 23.4961 39.375 23.4717 39.7754C23.4522 40.0684 23.4326 40.3467 23.4326 40.6152C23.4326 40.9033 23.1982 41.1377 22.9102 41.1377C22.6221 41.1377 22.3877 40.9033 22.3877 40.6152C22.3877 40.3467 22.4072 40.0293 22.4268 39.707C22.4951 38.5938 22.5781 37.3242 21.6943 37.1631H21.0059C20.957 37.1631 20.9131 37.1582 20.8691 37.1436V39.1699C20.8691 39.458 20.6348 39.6924 20.3467 39.6924C20.0586 39.6924 19.8242 39.458 19.8242 39.1699V33.75C19.8242 32.8418 19.4531 32.2607 18.9746 32.0264C18.7988 31.9385 18.6084 31.8945 18.4277 31.8945C18.2471 31.8945 18.0566 31.9385 17.8809 32.0264C17.4121 32.2656 17.0459 32.8418 17.0459 33.7793V43.3105C17.0459 43.5986 16.8115 43.833 16.5234 43.833C16.2354 43.833 16.001 43.5986 16.001 43.3105V42.3438H16.0107V42.3389ZM15.4639 48.4766L12.0703 43.623L12.0508 43.6035C11.8164 43.2959 11.5039 42.8125 11.2646 42.2803C11.0889 41.8799 10.957 41.4453 10.9277 41.0205C10.8984 40.5127 10.9668 40.1123 11.1084 39.79C11.2842 39.3945 11.5723 39.1357 11.9189 38.999C12.2412 38.8672 12.6025 38.8477 12.9688 38.9258C13.4082 39.0137 13.8623 39.2334 14.2432 39.5508C14.5557 39.8145 15.083 40.2393 15.6006 40.6641L16.0254 41.0156V33.7793C16.0254 32.3926 16.6406 31.499 17.4365 31.0986C17.7588 30.9375 18.1006 30.8545 18.4522 30.8545C18.8037 30.8545 19.1504 30.9375 19.4678 31.0986C20.2637 31.499 20.8936 32.3975 20.8936 33.7598V36.1572L20.8789 36.1523C20.9229 36.1377 20.9668 36.1328 21.0156 36.1328H21.7383C21.7773 36.1328 21.8213 36.1377 21.8555 36.1475C22.8174 36.2988 23.2471 36.8555 23.4229 37.583C23.4912 37.5537 23.5693 37.5342 23.6426 37.5342H24.3652C24.4043 37.5342 24.4482 37.5391 24.4824 37.5488C25.5176 37.71 25.9326 38.3447 26.084 39.1504C26.1084 39.1455 26.1328 39.1455 26.167 39.1455H26.8897C26.9287 39.1455 26.9727 39.1504 27.0068 39.1602C28.9893 39.4678 28.9648 41.4404 28.9453 43.0273V43.4424L28.9893 45.2734V45.332C28.9258 46.6309 28.4912 47.5488 27.9395 48.4863H33.3496V9.37988H1.45996V48.4814H15.4639V48.4766ZM14.1309 55.1758C13.7354 55.1758 13.3936 54.8535 13.3936 54.4385C13.3936 54.043 13.7158 53.7012 14.1309 53.7012H20.8252C21.2207 53.7012 21.5625 54.0234 21.5625 54.4385C21.5625 54.834 21.2402 55.1758 20.8252 55.1758H14.1309ZM13.501 3.49121C14.1504 3.49121 14.6729 4.01367 14.6729 4.66309C14.6729 5.3125 14.1504 5.83496 13.501 5.83496C12.8516 5.83496 12.3291 5.3125 12.3291 4.66309C12.3291 4.01367 12.8516 3.49121 13.501 3.49121ZM17.4072 3.49121C18.0566 3.49121 18.5791 4.01367 18.5791 4.66309C18.5791 5.3125 18.0566 5.83496 17.4072 5.83496C16.7578 5.83496 16.2354 5.3125 16.2354 4.66309C16.2354 4.01367 16.7578 3.49121 17.4072 3.49121ZM21.3135 3.49121C21.9629 3.49121 22.4854 4.01367 22.4854 4.66309C22.4854 5.3125 21.9629 5.83496 21.3135 5.83496C20.6641 5.83496 20.1416 5.3125 20.1416 4.66309C20.1465 4.01367 20.6641 3.49121 21.3135 3.49121ZM33.3594 49.9365H1.45996V53.8965C1.45996 55.1758 1.98242 56.3281 2.82715 57.1533C3.67188 57.998 4.82422 58.5205 6.08398 58.5205H28.7305C30.0098 58.5205 31.1621 57.998 31.9873 57.1533C32.832 56.3086 33.3545 55.1562 33.3545 53.8965V49.9365H33.3594ZM1.45996 7.90527H33.3594V6.08887C33.3594 4.80957 32.8369 3.65723 31.9922 2.83203C31.1475 1.9873 29.9951 1.46484 28.7354 1.46484H6.08398C4.80469 1.46484 3.65234 1.9873 2.82715 2.83203C1.98242 3.67676 1.45996 4.8291 1.45996 6.08887V7.90527Z" fill="url(#paint0_linear_305_3)"/>
<defs>
<linearGradient id="paint0_linear_305_3" x1="-16.543" y1="42.375" x2="34.8156" y2="42.3343" gradientUnits="userSpaceOnUse">
<stop stop-color="#0076FF"/>
<stop offset="1" stop-color="#00BCFF"/>
</linearGradient>
</defs>
</svg>
