<svg width="85" height="60" viewBox="0 0 85 60" fill="none" xmlns="http://www.w3.org/2000/svg">
<path fill-rule="evenodd" clip-rule="evenodd" d="M36.1273 51.0777C38.3852 57.7284 47.8276 57.9678 49.9487 51.0777C52.4461 53.3288 59.8426 53.7735 62.5932 55.313C63.4622 55.7988 64.2491 56.4146 64.8785 57.2494C65.3028 57.8105 65.8707 58.8437 66.2949 60H19.7742C20.2053 58.8437 20.7663 57.8105 21.1906 57.2494C21.82 56.4146 22.6069 55.7988 23.4759 55.313C26.2333 53.7804 33.6298 53.3288 36.1273 51.0777ZM34.5604 0H51.5224C52.2545 0 52.8498 0.595279 52.8498 1.3274V13.2398C52.8498 13.9719 52.2545 14.5672 51.5224 14.5672H34.5604C33.8283 14.5672 33.233 13.9719 33.233 13.2398V1.3274C33.233 0.595279 33.8283 0 34.5604 0ZM52.0629 3.71536H34.0746V13.3698C34.0746 13.4725 34.1156 13.5614 34.1841 13.6298C34.2525 13.6983 34.3414 13.7393 34.4441 13.7393H51.6935C51.7961 13.7393 51.885 13.6983 51.9535 13.6298C52.0219 13.5614 52.0629 13.4725 52.0629 13.3698V3.71536ZM50.2566 1.49162C50.6192 1.49162 50.9134 1.78584 50.9134 2.14848C50.9134 2.51112 50.6192 2.80534 50.2566 2.80534C49.8939 2.80534 49.5997 2.51112 49.5997 2.14848C49.5997 1.78584 49.8939 1.49162 50.2566 1.49162ZM45.8091 1.49162C46.1717 1.49162 46.466 1.78584 46.466 2.14848C46.466 2.51112 46.1717 2.80534 45.8091 2.80534C45.4465 2.80534 45.1522 2.51112 45.1522 2.14848C45.1522 1.78584 45.4465 1.49162 45.8091 1.49162ZM48.0328 1.49162C48.3955 1.49162 48.6897 1.78584 48.6897 2.14848C48.6897 2.51112 48.3955 2.80534 48.0328 2.80534C47.6702 2.80534 47.376 2.51112 47.376 2.14848C47.376 1.78584 47.6702 1.49162 48.0328 1.49162ZM40.6158 7.78652L38.4536 8.60075L40.6158 9.42183V11.324L37.2562 9.42183V7.78652L40.6158 5.88437V7.78652ZM48.8265 7.78652V9.42183L45.467 11.324V9.42183L47.6291 8.60075L45.467 7.78652V5.87752L48.8265 7.78652ZM43.0038 11.8577H41.5737L43.339 4.97434H44.7691L43.0038 11.8577ZM82.0322 38.0705C82.0595 38.0705 82.0869 38.0705 82.1143 38.0773C82.2853 37.7763 82.4427 37.4547 82.5932 37.1194C82.6001 37.1126 82.6001 37.1057 82.6069 37.1057C82.819 36.5925 82.9901 36.0657 83.0927 35.5183C83.1748 35.0941 83.2364 34.6562 83.2501 34.2114H80.6774C80.6295 35.5183 80.2395 36.8047 79.5142 38.0705H82.0322ZM81.5874 38.8916H79.001C78.2142 40.0342 77.1536 41.1563 75.833 42.2648C76.0383 42.2374 76.2504 42.2032 76.4489 42.1622C77.0031 42.0527 77.5368 41.8885 78.0568 41.6627C78.5768 41.4369 79.0694 41.1769 79.521 40.869C79.9726 40.5679 80.39 40.2258 80.78 39.8358C81.0674 39.5416 81.3479 39.2268 81.5874 38.8916ZM73.623 42.2648C72.2956 41.1563 71.235 40.0342 70.455 38.8916H67.8686C68.1149 39.2268 68.3886 39.5416 68.6897 39.8426C69.0797 40.2326 69.4902 40.5748 69.9487 40.8758C70.4003 41.1769 70.8861 41.4437 71.4129 41.6695C71.4198 41.6764 71.4266 41.6764 71.4266 41.6832C71.9398 41.8953 72.4666 42.0664 73.014 42.169C73.2124 42.2032 73.4177 42.2306 73.623 42.2648ZM67.3281 38.0705H69.935C69.2097 36.8047 68.8197 35.5115 68.7718 34.2114H66.1991C66.2196 34.663 66.2744 35.0941 66.3565 35.5183C66.466 36.0725 66.6302 36.6062 66.856 37.1262C66.9928 37.4547 67.1502 37.7694 67.3281 38.0705ZM66.1991 33.3904H68.7855C68.8813 32.1108 69.3055 30.8245 70.065 29.5313H67.3281C67.157 29.8324 66.9996 30.1471 66.856 30.4824C66.8491 30.4892 66.8491 30.4961 66.8423 30.4961C66.6302 31.0092 66.4591 31.5361 66.3565 32.0835C66.2675 32.5077 66.2128 32.9388 66.1991 33.3904ZM67.8618 28.7102H70.5919C71.3719 27.5881 72.3982 26.4591 73.6777 25.3233C73.4451 25.3507 73.2261 25.3849 73.0072 25.4328C72.4529 25.5422 71.9193 25.7065 71.3992 25.9323C70.8792 26.1581 70.3866 26.4181 69.935 26.726C69.4834 27.027 69.066 27.3691 68.676 27.7592C68.3818 28.0534 68.1081 28.3681 67.8618 28.7102ZM75.7646 25.3233C77.051 26.4591 78.0773 27.5881 78.8505 28.7102H81.5806C81.3342 28.375 81.0605 28.0602 80.7595 27.7592C80.3695 27.3691 79.9589 27.027 79.5005 26.726C79.0489 26.4249 78.5631 26.1581 78.0363 25.9323C78.0294 25.9254 78.0226 25.9254 78.0226 25.9186C77.5094 25.7065 76.9825 25.5354 76.4352 25.4328C76.2162 25.3917 75.9904 25.3575 75.7646 25.3233ZM82.1211 29.5313H79.3842C80.1437 30.8245 80.5679 32.1108 80.6637 33.3904H83.2501C83.2296 32.9388 83.1748 32.5077 83.0927 32.0835C82.9832 31.5293 82.819 30.9956 82.5932 30.4755C82.4495 30.1471 82.2922 29.8324 82.1211 29.5313ZM72.843 24.6254C73.4519 24.5022 74.0746 24.4406 74.7246 24.4406C75.3678 24.4406 75.9904 24.5022 76.6062 24.6254C77.2083 24.7417 77.7831 24.9196 78.351 25.1659C78.3578 25.1659 78.3647 25.1728 78.3715 25.1796C78.9326 25.4191 79.4663 25.7133 79.9658 26.0417C80.4653 26.3702 80.9237 26.7533 81.3479 27.1776C81.7721 27.6018 82.1485 28.0602 82.4837 28.5597C82.819 29.0592 83.1064 29.5929 83.3459 30.154C83.5922 30.7287 83.7701 31.3171 83.8933 31.9193C84.0164 32.5282 84.078 33.1509 84.078 33.8009C84.078 34.4441 84.0164 35.0667 83.8933 35.6825C83.7769 36.2846 83.599 36.8594 83.3527 37.4273C83.3527 37.4341 83.3459 37.441 83.339 37.4478C83.0995 38.0157 82.8053 38.5426 82.4769 39.0421C82.1485 39.5416 81.7653 40 81.3411 40.4242C80.9169 40.8484 80.4584 41.2248 79.9589 41.56C79.4595 41.8953 78.9258 42.1827 78.3647 42.4222C77.7899 42.6685 77.2015 42.8464 76.5994 42.9696C75.9904 43.0927 75.3678 43.1543 74.7178 43.1543C74.0746 43.1543 73.4519 43.0927 72.8361 42.9696C72.234 42.8532 71.6592 42.6753 71.0913 42.429C71.0845 42.429 71.0777 42.4222 71.0708 42.4153C70.5098 42.1758 69.976 41.8816 69.4766 41.5532C68.9771 41.2248 68.5186 40.8416 68.0944 40.4174C67.6702 39.9932 67.2939 39.5347 66.9586 39.0352C66.6233 38.5358 66.336 38.0021 66.0965 37.441C65.8502 36.8662 65.6722 36.2778 65.5491 35.6757C65.4259 35.0667 65.3643 34.4441 65.3643 33.794C65.3643 33.1509 65.4259 32.5282 65.5491 31.9124C65.6654 31.3103 65.8433 30.7355 66.0896 30.1676C66.0896 30.1608 66.0965 30.154 66.1033 30.1471C66.3428 29.5792 66.637 29.0523 66.9654 28.5529C67.2939 28.0534 67.677 27.5949 68.1013 27.1707C68.5255 26.7465 68.9839 26.3702 69.4834 26.0349C69.9829 25.6996 70.5166 25.4122 71.0777 25.1728C71.6456 24.9333 72.234 24.7554 72.843 24.6254ZM75.1351 25.857V28.7102H77.8515C77.1331 27.766 76.2299 26.8149 75.1351 25.857ZM75.1351 29.5313V33.3904H79.8426C79.7331 32.1245 79.261 30.8382 78.4194 29.5313H75.1351ZM75.1351 34.2114V38.0705H78.5631C79.3773 36.791 79.8084 35.5046 79.8563 34.2114H75.1351ZM75.1351 38.8916V41.779C76.2983 40.8279 77.2494 39.8632 77.9884 38.8916H75.1351ZM74.3141 41.7722V38.8847H71.4608C72.1929 39.8563 73.144 40.8211 74.3141 41.7722ZM74.3141 38.0705V34.2114H69.586C69.6339 35.5046 70.0718 36.791 70.8792 38.0705H74.3141ZM74.3141 33.3904V29.5313H71.0229C70.1813 30.8382 69.7092 32.1245 69.6066 33.3904H74.3141ZM74.3141 28.7102V25.857C73.2124 26.8149 72.3093 27.766 71.5977 28.7102H74.3141ZM6.45227 33.8009L3.42114 29.4013C3.95484 28.7581 4.42012 28.0739 4.82381 27.3555C5.24119 26.6096 5.59015 25.8296 5.89121 25.0154L11.2282 25.5286L6.45227 33.8009ZM7.45125 34.403L12.2477 26.0896L20.52 30.8655L19.8632 32.0014L13.2809 28.2039C12.9251 27.9986 12.4598 28.1218 12.2545 28.4776C12.0493 28.8334 12.1724 29.2987 12.5282 29.5039L19.1105 33.3014L18.4947 34.362L11.9124 30.5645C11.5566 30.3592 11.0913 30.4824 10.8861 30.8382C10.6808 31.194 10.804 31.6593 11.1598 31.8645L17.742 35.662L17.1262 36.7225L10.544 32.9251C10.1882 32.7198 9.72289 32.843 9.51762 33.1988C9.31235 33.5546 9.43551 34.0198 9.79131 34.2251L16.3736 38.0226L15.7167 39.1584L7.45125 34.403ZM2.38112 27.9028L0 24.4475L4.08484 24.8443C3.85221 25.4191 3.5922 25.9733 3.29798 26.5002C3.03113 26.9928 2.72323 27.4581 2.38112 27.9028ZM11.885 57.5847C12.234 58.3647 11.885 59.2816 11.0982 59.6305C10.3182 59.9795 9.4013 59.6305 9.05234 58.8437C8.18337 56.9004 7.47178 54.882 6.95176 52.7951C6.43859 50.7492 6.09648 48.6281 5.9391 46.4591C5.87752 45.6038 6.5207 44.858 7.38283 44.7964C8.23811 44.7349 8.98392 45.378 9.0455 46.2402C9.18919 48.2244 9.50393 50.1608 9.96921 52.0356C10.4482 53.972 11.0982 55.8194 11.885 57.5847ZM18.4126 20.5269C17.7763 21.0948 16.7978 21.04 16.2231 20.4037C15.6551 19.7674 15.7099 18.7889 16.3462 18.2142C17.7968 16.921 19.4937 15.5936 21.2453 14.4509C22.819 13.4246 24.4406 12.5419 25.987 11.9398C26.7875 11.6319 27.6839 12.0287 27.9918 12.8293C28.2997 13.6298 27.9028 14.5262 27.1023 14.8341C25.768 15.3472 24.338 16.1341 22.9285 17.051C21.3137 18.1115 19.74 19.3363 18.4126 20.5269ZM58.6384 13.9514C57.8994 13.5204 57.6531 12.5693 58.0842 11.8303C58.5152 11.0913 59.4663 10.845 60.2053 11.2761C61.9432 12.2887 63.5922 13.4519 65.1317 14.7314C66.6849 16.0178 68.1286 17.4341 69.4423 18.9463C70.0034 19.5963 69.935 20.5748 69.285 21.1358C68.635 21.6969 67.6565 21.6285 67.0954 20.9784C65.8844 19.5826 64.5638 18.2894 63.1543 17.1126C61.7448 15.9494 60.2326 14.8888 58.6384 13.9514ZM75.8536 48.286C75.963 47.4376 76.7431 46.8354 77.5915 46.9518C78.44 47.0681 79.0421 47.8413 78.9258 48.6897C78.6931 50.4413 78.3442 52.1451 77.8789 53.7872C77.4068 55.4772 76.8115 57.1057 76.1204 58.6794C75.7715 59.4663 74.8546 59.8221 74.0746 59.4731C73.2877 59.1242 72.9319 58.2073 73.2809 57.4273C73.924 55.9767 74.4646 54.4851 74.8956 52.9524C75.3199 51.4266 75.6483 49.8666 75.8536 48.286ZM34.3962 37.2973C33.924 37.3178 33.5614 37.4136 33.3219 37.5778C33.1851 37.6736 33.0824 37.7899 33.014 37.9336C32.9388 38.091 32.9045 38.2826 32.9114 38.5084C32.9319 39.1584 33.274 40.0068 33.9309 40.9853L33.9377 40.999L36.0725 44.3996C36.9278 45.7612 37.831 47.1502 38.9463 48.1697C40.0205 49.1481 41.3206 49.8187 43.0448 49.8187C44.9128 49.8255 46.2744 49.1345 47.3828 48.0944C48.5323 47.0133 49.4423 45.5354 50.3387 44.0643L52.7472 40.0958C53.1988 39.0695 53.3561 38.3852 53.2535 37.9815C53.1919 37.742 52.9251 37.6257 52.4803 37.6052C52.3845 37.5984 52.2887 37.5984 52.1861 37.6052C52.0766 37.6052 51.9672 37.6189 51.8508 37.6257C51.7893 37.6326 51.7277 37.6257 51.6661 37.612C51.454 37.6257 51.2282 37.612 51.0092 37.5778L51.8372 34.2662C45.7201 35.2309 41.1427 30.6877 34.6767 33.3561L35.142 37.3178C34.8683 37.3452 34.622 37.3315 34.3962 37.2973ZM53.3014 36.531C53.8967 36.7089 54.273 37.0852 54.4304 37.6941C54.6014 38.3647 54.4167 39.3158 53.8419 40.6158C53.8283 40.6363 53.8214 40.6637 53.8077 40.6842L51.3719 44.6938C50.4345 46.2402 49.4766 47.7865 48.2107 48.9839C46.8902 50.2155 45.2686 51.0366 43.0517 51.0298C40.9784 51.0229 39.4184 50.2292 38.1389 49.0592C36.9004 47.9302 35.9562 46.466 35.0599 45.0428L32.9251 41.6422C32.1451 40.479 31.7345 39.4116 31.714 38.5358C31.7003 38.1252 31.7687 37.7489 31.9261 37.4205C32.0835 37.0783 32.3298 36.791 32.6582 36.5652C32.8156 36.4625 32.9867 36.3736 33.1782 36.2983C33.0414 34.4577 32.9867 32.4735 33.0756 30.5303C33.1235 30.0718 33.2125 29.6066 33.3425 29.1481C33.8898 27.1981 35.2583 26.3017 36.9552 25.2275C37.8926 24.6322 38.9121 24.1806 39.9863 23.8796C40.6637 23.688 39.4116 21.519 40.1095 21.4437C43.5032 21.0948 48.9908 24.1943 51.365 26.7533C52.5487 28.0397 53.2946 29.0592 53.4588 31.3103L53.3014 36.531Z" fill="url(#paint0_linear_305_4)"/>
<defs>
<linearGradient id="paint0_linear_305_4" x1="-39.952" y1="42.375" x2="84.0804" y2="42.1379" gradientUnits="userSpaceOnUse">
<stop stop-color="#0076FF"/>
<stop offset="1" stop-color="#00BCFF"/>
</linearGradient>
</defs>
</svg>
