<svg width="60" height="50" viewBox="0 0 60 50" fill="none" xmlns="http://www.w3.org/2000/svg">
<path fill-rule="evenodd" clip-rule="evenodd" d="M1.63086 0H58.3691C59.2676 0 60 0.732422 60 1.63086V39.2188C60 40.1172 59.2676 40.8496 58.3691 40.8496H1.63086C0.732422 40.8496 0 40.1172 0 39.2188V1.63086C0 0.732422 0.732422 0 1.63086 0ZM6.1377 5.70312H10.9326V6.95312H6.1377V5.70312ZM13.2178 18.9453H6.1377V17.6904H13.2178V18.9453ZM22.8516 18.9502H14.6582V17.6904H22.8516V18.9502ZM36.9434 18.9502H24.2383V17.6953H36.9482V18.9502H36.9434ZM18.1885 13.7061H43.1641V14.9414H18.1885V13.7061ZM12.3145 13.6963H16.8359V14.9463H12.3145V13.6963ZM6.1377 13.6963H10.9326V14.9463H6.1377V13.6963ZM16.9775 10.9424H6.1377V9.70215H16.9824V10.9424H16.9775ZM22.8516 10.9473H18.3301V9.69727H22.8516V10.9473ZM36.9434 10.9521H24.2383V9.69727H36.9482V10.9521H36.9434ZM18.1885 5.70312H29.0332V6.94336H18.1885V5.70312ZM12.3145 5.70312H16.8359V6.95312H12.3145V5.70312ZM44.5312 30.3125L40.0879 27.8223V26.3965L44.5312 23.9062V25.5469L41.4355 27.0898L44.5312 28.6816V30.3125ZM45.3564 31.4209L46.9629 22.6758H47.8955L46.2793 31.4209H45.3564ZM48.5742 30.3223V28.6914L51.6748 27.1289L48.5742 25.5469V23.9258L53.0176 26.4355V27.8418L48.5742 30.3223ZM22.6025 43.1006H37.3975C37.4365 45.6592 38.4912 47.9492 41.3477 49.7559H18.6523C20.9375 48.1006 22.6123 46.0889 22.6025 43.1006ZM30 35.3564C31.1572 35.3564 32.0947 36.2939 32.0947 37.4512C32.0947 38.6084 31.1572 39.5459 30 39.5459C28.8428 39.5459 27.9053 38.6084 27.9053 37.4512C27.9053 36.2939 28.8428 35.3564 30 35.3564ZM4.90723 3.07129H55.0977C55.8936 3.07129 56.5381 3.7207 56.5381 4.51172V32.5977C56.5381 33.3887 55.8887 34.0381 55.0977 34.0381H4.90723C4.11621 34.0381 3.4668 33.3887 3.4668 32.5977V4.51172C3.46191 3.7207 4.11133 3.07129 4.90723 3.07129Z" fill="url(#paint0_linear_305_2)"/>
<defs>
<linearGradient id="paint0_linear_305_2" x1="-28.5106" y1="35.1401" x2="60.0018" y2="34.9945" gradientUnits="userSpaceOnUse">
<stop stop-color="#0076FF"/>
<stop offset="1" stop-color="#00BCFF"/>
</linearGradient>
</defs>
</svg>
