<svg width="60" height="60" viewBox="0 0 60 60" fill="none" xmlns="http://www.w3.org/2000/svg">
<path d="M3.22275 59.5444H23.1988C23.6769 59.5446 24.1491 59.4379 24.5806 59.2319C25.0095 59.0249 25.3878 58.7266 25.6891 58.3578C26.1595 57.7832 26.4181 57.0643 26.4215 56.3216V36.4286C26.4213 35.9955 26.3332 35.567 26.1627 35.1688C25.8293 34.3868 25.2013 33.7675 24.4146 33.4452C24.0281 33.2904 23.6151 33.2124 23.1988 33.2157H3.22275C2.81586 33.217 2.41303 33.2966 2.0362 33.4501C1.65333 33.5988 1.30331 33.8211 1.0059 34.1044C0.690641 34.4056 0.439805 34.7678 0.268582 35.1688C0.0911615 35.5651 -0.000364883 35.9945 2.11427e-05 36.4286V56.3216C0.00074963 56.7089 0.0718958 57.0927 0.209987 57.4545C0.346886 57.8117 0.545189 58.1422 0.795937 58.4311L0.922893 58.5629C1.20547 58.8454 1.53617 59.0753 1.89948 59.2416C2.31833 59.4318 2.77253 59.5316 3.23251 59.5346L3.22275 59.5444ZM28.9557 13.8988L41.9931 0.876106C42.3 0.568092 42.6698 0.32992 43.0771 0.177849C43.4914 0.029737 43.9328 -0.0269008 44.3711 0.0118295C45.0525 0.0758903 45.69 0.376487 46.1729 0.861457L59.137 13.8256C59.4171 14.104 59.638 14.4362 59.7865 14.8022C60.0024 15.3429 60.056 15.9348 59.9407 16.5055C59.8253 17.0761 59.546 17.6008 59.137 18.0151L46.1192 31.0574C45.8525 31.3217 45.5376 31.5322 45.1914 31.6776C44.8463 31.8295 44.4747 31.9124 44.0977 31.9217C43.6952 31.9318 43.295 31.8604 42.9209 31.7117C42.544 31.5682 42.2026 31.345 41.9199 31.0574L28.9557 18.0786C28.4505 17.5712 28.1453 16.8985 28.0963 16.1841V16.0278C28.0933 15.6335 28.1681 15.2426 28.3164 14.8772C28.4647 14.5119 28.6836 14.1795 28.9606 13.8988H28.9557ZM3.22275 29.1336H23.1988C23.676 29.1338 24.1473 29.0274 24.5782 28.8221C25.009 28.6168 25.3886 28.3178 25.6891 27.947C25.9264 27.6563 26.1099 27.3256 26.2311 26.9704C26.3558 26.6242 26.4202 26.2592 26.4215 25.8913V6.0227C26.4206 5.58966 26.3326 5.16123 26.1627 4.76291C25.8304 3.97899 25.2022 3.35783 24.4146 3.03436C24.0345 2.88037 23.6284 2.8008 23.2183 2.79998H3.22275C2.81586 2.80132 2.41303 2.88089 2.0362 3.03436C1.65333 3.18308 1.30331 3.40537 1.0059 3.68867C0.690641 3.98995 0.439805 4.35209 0.268582 4.75314C0.0899509 5.15247 -0.00159935 5.58525 2.11427e-05 6.0227V25.9157C0.000688293 26.3013 0.0718464 26.6836 0.209987 27.0437C0.345779 27.4014 0.544193 27.7321 0.795937 28.0202L0.922893 28.1521C1.20547 28.4346 1.53617 28.6644 1.89948 28.8308C2.31833 29.021 2.77253 29.1208 3.23251 29.1238L3.22275 29.1336ZM23.2036 25.9255H3.22275V6.00805C4.93665 6.00805 23.2085 6.00805 23.2427 6.00805C23.2427 7.68778 23.2427 25.9059 23.2427 25.9157L23.2036 25.9255ZM34.0584 59.5444H54.0344C54.5126 59.5446 54.9847 59.4379 55.4163 59.2319C55.8451 59.0249 56.2234 58.7266 56.5247 58.3578C56.9952 57.7832 57.2537 57.0643 57.2571 56.3216V36.4286C57.2563 35.9972 57.1682 35.5703 56.9983 35.1737C56.6614 34.3861 56.0257 33.7644 55.2307 33.4452C54.8506 33.2912 54.4445 33.2116 54.0344 33.2108H34.0584C33.2343 33.2195 32.4434 33.5365 31.8415 34.0995C31.5257 34.4022 31.2749 34.766 31.1042 35.1688C30.9261 35.5666 30.8346 35.9977 30.8356 36.4335V56.3265C30.8364 56.7137 30.9075 57.0976 31.0456 57.4594C31.1825 57.8166 31.3808 58.1471 31.6316 58.4359L31.7585 58.5678C32.0411 58.8503 32.3718 59.0801 32.7351 59.2465C33.154 59.4367 33.6082 59.5365 34.0681 59.5395L34.0584 59.5444ZM54.0393 56.3363H34.0584V36.4286C35.7723 36.4286 54.0442 36.4286 54.0783 36.4286C54.0783 38.1084 54.0783 56.3265 54.0783 56.3363H54.0393ZM23.2036 56.3363H3.22275V36.4189C4.93665 36.4189 23.2085 36.4189 23.2427 36.4189C23.2427 38.0986 23.2427 56.3168 23.2427 56.3265L23.2036 56.3363Z" fill="url(#paint0_linear_305_5)"/>
<defs>
<linearGradient id="paint0_linear_305_5" x1="-28.5106" y1="42.0532" x2="60.0019" y2="41.9316" gradientUnits="userSpaceOnUse">
<stop stop-color="#0076FF"/>
<stop offset="1" stop-color="#00BCFF"/>
</linearGradient>
</defs>
</svg>
